<?xml version="1.0" encoding="utf-8"?>
<!-- Generator: Adobe Illustrator 24.0.1, SVG Export Plug-In . SVG Version: 6.00 Build 0)  -->
<svg version="1.1" id="Camada_1" xmlns="http://www.w3.org/2000/svg" xmlns:xlink="http://www.w3.org/1999/xlink" x="0px" y="0px"
	 viewBox="0 0 9772.4 2931" style="enable-background:new 0 0 9772.4 2931;" xml:space="preserve">
<path d="M1465.5,0C656.1,0,0,656.1,0,1465.5C0,2274.9,656.1,2931,1465.5,2931c809.4,0,1465.5-656.1,1465.5-1465.5
	C2931,656.2,2274.9,0.1,1465.5,0L1465.5,0z M2137.6,2113.6c-26.3,43.2-82.6,56.7-125.6,30.4c-344.1-210.3-777.3-257.8-1287.4-141.3
	c-49.2,11.3-98.2-19.5-109.4-68.7c-11.3-49.2,19.4-98.2,68.7-109.4C1242.1,1697.1,1721,1752,2107.3,1988
	C2150.3,2014.5,2164,2070.6,2137.6,2113.6L2137.6,2113.6z M2316.9,1714.7c-33.1,53.8-103.5,70.6-157.2,37.6
	c-393.8-242.1-994.4-312.2-1460.3-170.8c-60.4,18.3-124.3-15.8-142.6-76.1c-18.2-60.4,15.9-124.1,76.2-142.5
	c532.2-161.5,1193.9-83.3,1646.2,194.7C2333,1590.7,2350,1661,2316.9,1714.7L2316.9,1714.7L2316.9,1714.7z M2332.3,1299.1
	c-472.4-280.5-1251.6-306.3-1702.6-169.5c-72.4,22-149-18.9-170.9-91.3c-21.9-72.4,18.9-149,91.4-171
	c517.7-157.1,1378.2-126.8,1922,196c65.1,38.7,86.5,122.8,47.9,187.8C2481.6,1316.3,2397.3,1337.8,2332.3,1299.1L2332.3,1299.1z
	 M3987.1,1352.9c-253-60.3-298.1-102.7-298.1-191.7c0-84.1,79.2-140.6,196.9-140.6c114.1,0,227.2,43,345.9,131.4
	c3.6,2.7,8.1,3.7,12.5,3c4.4-0.7,8.3-3.1,10.9-6.8l123.5-174.2c5.1-7.2,3.7-17.1-3.1-22.5c-141.2-113.3-300.1-168.4-486-168.4
	c-273.2,0-464,164-464,398.5c0,251.6,164.6,340.6,449.1,409.4c242.1,55.8,283,102.5,283,186c0,92.6-82.6,150.1-215.6,150.1
	c-147.7,0-268.2-49.8-402.9-166.5c-3.3-2.9-7.9-4.2-12.2-4c-4.5,0.4-8.5,2.4-11.4,5.8l-138.5,164.9c-5.8,6.8-5.1,17.1,1.6,23
	c156.8,140,349.6,213.9,557.8,213.9c294.4,0,484.6-160.9,484.6-409.8c0.5-210.2-125.3-326.6-433.5-401.5L3987.1,1352.9
	L3987.1,1352.9z M5087.2,1103.4c-127.6,0-232.3,50.3-318.6,153.2v-115.9c0-9.2-7.4-16.6-16.6-16.6h-226.6c-9.2,0-16.6,7.5-16.6,16.6
	v1288c0,9.2,7.4,16.6,16.6,16.6H4752c9.1,0,16.6-7.5,16.6-16.6v-406.6c86.3,96.9,191,144.2,318.6,144.2
	c237.1,0,477.1-182.5,477.1-531.4c0.4-349-239.8-531.6-476.9-531.6L5087.2,1103.4L5087.2,1103.4z M5300.9,1634.9
	c0,177.7-109.4,301.7-266.2,301.7c-154.9,0-271.8-129.6-271.8-301.7c0-172,116.9-301.7,271.8-301.7
	C5188.9,1333.2,5300.9,1460.1,5300.9,1634.9L5300.9,1634.9L5300.9,1634.9z M6179.5,1103.4c-305.4,0-544.6,235.1-544.6,535.4
	c0,297,237.6,529.6,540.8,529.6c306.4,0,546.4-234.3,546.4-533.4C6722.2,1336.9,6483.8,1103.4,6179.5,1103.4L6179.5,1103.4
	L6179.5,1103.4z M6179.5,1938.3c-162.4,0-284.9-130.5-284.9-303.5c0-173.8,118.2-299.8,281.1-299.8c163.5,0,286.7,130.5,286.7,303.6
	C6462.5,1812.3,6343.5,1938.3,6179.5,1938.3L6179.5,1938.3L6179.5,1938.3z M7374.3,1124.1h-249.3V869.2c0-9.1-7.4-16.6-16.5-16.6
	h-226.5c-9.2,0-16.6,7.5-16.6,16.6v254.9h-108.9c-9.1,0-16.5,7.5-16.5,16.6v194.7c0,9.1,7.4,16.6,16.5,16.6h108.9v503.8
	c0,203.6,101.3,306.8,301.2,306.8c81.3,0,148.7-16.8,212.2-52.8c5.2-2.9,8.4-8.5,8.4-14.4v-185.4c0-5.7-3-11.1-7.9-14.1
	c-4.9-3.1-11.1-3.3-16.1-0.8c-43.6,22-85.8,32.1-133,32.1c-72.7,0-105.1-33-105.1-107v-468.2h249.3c9.2,0,16.5-7.5,16.5-16.6v-194.7
	c0.4-9.2-7-16.6-16.3-16.6L7374.3,1124.1z M8243,1125.1v-31.3c0-92.1,35.3-133.2,114.5-133.2c47.2,0,85.2,9.4,127.7,23.6
	c5.2,1.6,10.7,0.8,14.9-2.3c4.4-3.1,6.8-8.2,6.8-13.5V777.4c0-7.3-4.7-13.8-11.7-15.9c-44.9-13.4-102.3-27.1-188.3-27.1
	c-209.3,0-319.9,117.8-319.9,340.7v47.9h-108.9c-9.1,0-16.6,7.5-16.6,16.6v195.7c0,9.1,7.5,16.6,16.6,16.6H7987v777.2
	c0,9.2,7.4,16.6,16.5,16.6h226.6c9.2,0,16.6-7.5,16.6-16.6v-777.1h211.5l324,777c-36.8,81.6-73,97.9-122.3,97.9
	c-39.9,0-82-11.9-124.9-35.4c-4-2.2-8.8-2.6-13.2-1.2c-4.3,1.5-8,4.7-9.8,8.9l-76.8,168.5c-3.7,8-0.5,17.3,7.1,21.4
	c80.2,43.4,152.5,61.9,242,61.9c167.3,0,259.8-77.9,341.3-287.6l393.1-1015.7c2-5.1,1.4-10.9-1.8-15.4c-3.1-4.5-8.1-7.2-13.6-7.2
	h-235.9c-7.1,0-13.4,4.5-15.7,11.1l-241.6,690.2l-264.7-690.6c-2.4-6.4-8.6-10.7-15.5-10.7L8243,1125.1L8243,1125.1L8243,1125.1z
	 M7739.3,1124.1h-226.6c-9.2,0-16.6,7.5-16.6,16.6v988.5c0,9.2,7.5,16.6,16.6,16.6h226.6c9.1,0,16.6-7.5,16.6-16.6v-988.4
	C7755.9,1131.6,7748.5,1124.2,7739.3,1124.1C7739.4,1124.1,7739.3,1124.1,7739.3,1124.1L7739.3,1124.1z M7627.3,674
	c-89.8,0-162.6,72.7-162.6,162.4c0,89.8,72.9,162.6,162.6,162.6c89.7,0,162.5-72.7,162.5-162.6C7789.8,746.7,7717,674,7627.3,674
	L7627.3,674L7627.3,674z M9612.2,1441.9c-89.7,0-159.4-72-159.4-159.5s70.7-160.3,160.3-160.3c89.7,0,159.4,72,159.4,159.4
	C9772.4,1369,9701.7,1441.9,9612.2,1441.9L9612.2,1441.9z M9613,1138c-81.7,0-143.5,64.9-143.5,144.4c0,79.5,61.4,143.5,142.6,143.5
	c81.7,0,143.5-64.9,143.5-144.4C9755.7,1202.1,9694.3,1138,9613,1138L9613,1138L9613,1138z M9648.4,1297.9l45.1,63.1h-38l-40.6-57.9
	h-34.9v57.9h-31.8v-167.4h74.6c38.9,0,64.5,19.9,64.5,53.4c0.2,27.4-15.8,44.2-38.7,50.8L9648.4,1297.9L9648.4,1297.9z
	 M9621.4,1222.4h-41.5v52.9h41.5c20.7,0,33.1-10.1,33.1-26.5C9654.5,1231.6,9642.1,1222.4,9621.4,1222.4L9621.4,1222.4
	L9621.4,1222.4z"/>
</svg>
