<?xml version="1.0" encoding="utf-8"?>
<!-- Generator: Adobe Illustrator 24.0.1, SVG Export Plug-In . SVG Version: 6.00 Build 0)  -->
<svg version="1.1" id="Camada_1" xmlns="http://www.w3.org/2000/svg" xmlns:xlink="http://www.w3.org/1999/xlink" x="0px" y="0px"
	 viewBox="0 0 390 271" style="enable-background:new 0 0 390 271;" xml:space="preserve">
<style type="text/css">
	.st0{fill:#FFFFFF;}
	.st1{fill:#383572;}
	.st2{fill:#D81228;}
</style>
<g>
	
		<image style="overflow:visible;opacity:0.15;" width="420" height="303" xlink:href="AA037270.png"  transform="matrix(1 0 0 1 -15 -16)">
	</image>
	<g>
		<g>
			<rect x="0.2" y="0" class="st0" width="389.8" height="271.1"/>
			<rect x="0.2" y="0" class="st1" width="205.8" height="145.5"/>
			<polygon class="st0" points="17,5.7 18.9,11.6 25.1,11.6 20.1,15.2 22,21.2 17,17.5 12,21.2 13.9,15.2 8.8,11.6 15.1,11.6 			"/>
			<polygon class="st0" points="52,5.7 53.9,11.6 60.2,11.6 55.1,15.2 57.1,21.2 52,17.5 47,21.2 48.9,15.2 43.9,11.6 50.1,11.6 			
				"/>
			<polygon class="st0" points="86.1,5.7 88,11.6 94.2,11.6 89.2,15.2 91.1,21.2 86.1,17.5 81.1,21.2 83,15.2 78,11.6 84.2,11.6 			
				"/>
			<polygon class="st0" points="120.2,5.7 122.1,11.6 128.3,11.6 123.3,15.2 125.2,21.2 120.2,17.5 115.1,21.2 117.1,15.2 112,11.6 
				118.3,11.6 			"/>
			<polygon class="st0" points="154.3,5.7 156.2,11.6 162.4,11.6 157.4,15.2 159.3,21.2 154.3,17.5 149.2,21.2 151.1,15.2 
				146.1,11.6 152.3,11.6 			"/>
			<polygon class="st0" points="172.1,21.2 174.1,27.1 180.3,27.1 175.2,30.7 177.2,36.7 172.1,33 167.1,36.7 169,30.7 164,27.1 
				170.2,27.1 			"/>
			<polygon class="st0" points="138,21.2 139.9,27.1 146.1,27.1 141.1,30.7 143,36.7 138,33 132.9,36.7 134.8,30.7 129.8,27.1 
				136,27.1 			"/>
			<polygon class="st0" points="103.8,21.2 105.7,27.1 111.9,27.1 106.9,30.7 108.8,36.7 103.8,33 98.8,36.7 100.7,30.7 95.6,27.1 
				101.9,27.1 			"/>
			<polygon class="st0" points="68.7,21.2 70.6,27.1 76.8,27.1 71.8,30.7 73.7,36.7 68.7,33 63.6,36.7 65.6,30.7 60.5,27.1 
				66.7,27.1 			"/>
			<polygon class="st0" points="34.5,21.2 36.4,27.1 42.6,27.1 37.6,30.7 39.5,36.7 34.5,33 29.5,36.7 31.4,30.7 26.4,27.1 
				32.6,27.1 			"/>
			<polygon class="st0" points="189.3,5.7 191.2,11.6 197.4,11.6 192.4,15.2 194.3,21.2 189.3,17.5 184.3,21.2 186.2,15.2 
				181.1,11.6 187.4,11.6 			"/>
			<polygon class="st0" points="17,34.4 18.9,40.3 25.1,40.3 20.1,44 22,49.9 17,46.2 12,49.9 13.9,44 8.8,40.3 15.1,40.3 			"/>
			<polygon class="st0" points="52,34.4 53.9,40.3 60.2,40.3 55.1,44 57.1,49.9 52,46.2 47,49.9 48.9,44 43.9,40.3 50.1,40.3 			"/>
			<polygon class="st0" points="86.1,34.4 88,40.3 94.2,40.3 89.2,44 91.1,49.9 86.1,46.2 81.1,49.9 83,44 78,40.3 84.2,40.3 			"/>
			<polygon class="st0" points="120.2,34.4 122.1,40.3 128.3,40.3 123.3,44 125.2,49.9 120.2,46.2 115.1,49.9 117.1,44 112,40.3 
				118.3,40.3 			"/>
			<polygon class="st0" points="154.3,34.4 156.2,40.3 162.4,40.3 157.4,44 159.3,49.9 154.3,46.2 149.2,49.9 151.1,44 146.1,40.3 
				152.3,40.3 			"/>
			<polygon class="st0" points="172.1,49.9 174.1,55.8 180.3,55.8 175.2,59.5 177.2,65.4 172.1,61.7 167.1,65.4 169,59.5 164,55.8 
				170.2,55.8 			"/>
			<polygon class="st0" points="138,49.9 139.9,55.8 146.1,55.8 141.1,59.5 143,65.4 138,61.7 132.9,65.4 134.8,59.5 129.8,55.8 
				136,55.8 			"/>
			<polygon class="st0" points="103.8,49.9 105.7,55.8 111.9,55.8 106.9,59.5 108.8,65.4 103.8,61.7 98.8,65.4 100.7,59.5 
				95.6,55.8 101.9,55.8 			"/>
			<polygon class="st0" points="68.7,49.9 70.6,55.8 76.8,55.8 71.8,59.5 73.7,65.4 68.7,61.7 63.6,65.4 65.6,59.5 60.5,55.8 
				66.7,55.8 			"/>
			<polygon class="st0" points="34.5,49.9 36.4,55.8 42.6,55.8 37.6,59.5 39.5,65.4 34.5,61.7 29.5,65.4 31.4,59.5 26.4,55.8 
				32.6,55.8 			"/>
			<polygon class="st0" points="189.3,34.4 191.2,40.3 197.4,40.3 192.4,44 194.3,49.9 189.3,46.2 184.3,49.9 186.2,44 181.1,40.3 
				187.4,40.3 			"/>
			<polygon class="st0" points="17,63.1 18.9,69.1 25.1,69.1 20.1,72.7 22,78.6 17,75 12,78.6 13.9,72.7 8.8,69.1 15.1,69.1 			"/>
			<polygon class="st0" points="52,63.1 53.9,69.1 60.2,69.1 55.1,72.7 57.1,78.6 52,75 47,78.6 48.9,72.7 43.9,69.1 50.1,69.1 			
				"/>
			<polygon class="st0" points="86.1,63.1 88,69.1 94.2,69.1 89.2,72.7 91.1,78.6 86.1,75 81.1,78.6 83,72.7 78,69.1 84.2,69.1 			
				"/>
			<polygon class="st0" points="120.2,63.1 122.1,69.1 128.3,69.1 123.3,72.7 125.2,78.6 120.2,75 115.1,78.6 117.1,72.7 112,69.1 
				118.3,69.1 			"/>
			<polygon class="st0" points="154.3,63.1 156.2,69.1 162.4,69.1 157.4,72.7 159.3,78.6 154.3,75 149.2,78.6 151.1,72.7 
				146.1,69.1 152.3,69.1 			"/>
			<polygon class="st0" points="172.1,78.6 174.1,84.6 180.3,84.6 175.2,88.2 177.2,94.1 172.1,90.5 167.1,94.1 169,88.2 164,84.6 
				170.2,84.6 			"/>
			<polygon class="st0" points="138,78.6 139.9,84.6 146.1,84.6 141.1,88.2 143,94.1 138,90.5 132.9,94.1 134.8,88.2 129.8,84.6 
				136,84.6 			"/>
			<polygon class="st0" points="103.8,78.6 105.7,84.6 111.9,84.6 106.9,88.2 108.8,94.1 103.8,90.5 98.8,94.1 100.7,88.2 
				95.6,84.6 101.9,84.6 			"/>
			<polygon class="st0" points="68.7,78.6 70.6,84.6 76.8,84.6 71.8,88.2 73.7,94.1 68.7,90.5 63.6,94.1 65.6,88.2 60.5,84.6 
				66.7,84.6 			"/>
			<polygon class="st0" points="34.5,78.6 36.4,84.6 42.6,84.6 37.6,88.2 39.5,94.1 34.5,90.5 29.5,94.1 31.4,88.2 26.4,84.6 
				32.6,84.6 			"/>
			<polygon class="st0" points="189.3,63.1 191.2,69.1 197.4,69.1 192.4,72.7 194.3,78.6 189.3,75 184.3,78.6 186.2,72.7 
				181.1,69.1 187.4,69.1 			"/>
			<polygon class="st0" points="17,91.9 18.9,97.8 25.1,97.8 20.1,101.5 22,107.4 17,103.7 12,107.4 13.9,101.5 8.8,97.8 15.1,97.8 
							"/>
			<polygon class="st0" points="52,91.9 53.9,97.8 60.2,97.8 55.1,101.5 57.1,107.4 52,103.7 47,107.4 48.9,101.5 43.9,97.8 
				50.1,97.8 			"/>
			<polygon class="st0" points="86.1,91.9 88,97.8 94.2,97.8 89.2,101.5 91.1,107.4 86.1,103.7 81.1,107.4 83,101.5 78,97.8 
				84.2,97.8 			"/>
			<polygon class="st0" points="120.2,91.9 122.1,97.8 128.3,97.8 123.3,101.5 125.2,107.4 120.2,103.7 115.1,107.4 117.1,101.5 
				112,97.8 118.3,97.8 			"/>
			<polygon class="st0" points="154.3,91.9 156.2,97.8 162.4,97.8 157.4,101.5 159.3,107.4 154.3,103.7 149.2,107.4 151.1,101.5 
				146.1,97.8 152.3,97.8 			"/>
			<polygon class="st0" points="172.1,107.4 174.1,113.3 180.3,113.3 175.2,117 177.2,122.9 172.1,119.2 167.1,122.9 169,117 
				164,113.3 170.2,113.3 			"/>
			<polygon class="st0" points="138,107.4 139.9,113.3 146.1,113.3 141.1,117 143,122.9 138,119.2 132.9,122.9 134.8,117 
				129.8,113.3 136,113.3 			"/>
			<polygon class="st0" points="103.8,107.4 105.7,113.3 111.9,113.3 106.9,117 108.8,122.9 103.8,119.2 98.8,122.9 100.7,117 
				95.6,113.3 101.9,113.3 			"/>
			<polygon class="st0" points="68.7,107.4 70.6,113.3 76.8,113.3 71.8,117 73.7,122.9 68.7,119.2 63.6,122.9 65.6,117 60.5,113.3 
				66.7,113.3 			"/>
			<polygon class="st0" points="34.5,107.4 36.4,113.3 42.6,113.3 37.6,117 39.5,122.9 34.5,119.2 29.5,122.9 31.4,117 26.4,113.3 
				32.6,113.3 			"/>
			<polygon class="st0" points="189.3,91.9 191.2,97.8 197.4,97.8 192.4,101.5 194.3,107.4 189.3,103.7 184.3,107.4 186.2,101.5 
				181.1,97.8 187.4,97.8 			"/>
			<polygon class="st0" points="17,120.6 18.9,126.5 25.1,126.5 20.1,130.2 22,136.1 17,132.5 12,136.1 13.9,130.2 8.8,126.5 
				15.1,126.5 			"/>
			<polygon class="st0" points="52,120.6 53.9,126.5 60.2,126.5 55.1,130.2 57.1,136.1 52,132.5 47,136.1 48.9,130.2 43.9,126.5 
				50.1,126.5 			"/>
			<polygon class="st0" points="86.1,120.6 88,126.5 94.2,126.5 89.2,130.2 91.1,136.1 86.1,132.5 81.1,136.1 83,130.2 78,126.5 
				84.2,126.5 			"/>
			<polygon class="st0" points="120.2,120.6 122.1,126.5 128.3,126.5 123.3,130.2 125.2,136.1 120.2,132.5 115.1,136.1 117.1,130.2 
				112,126.5 118.3,126.5 			"/>
			<polygon class="st0" points="154.3,120.6 156.2,126.5 162.4,126.5 157.4,130.2 159.3,136.1 154.3,132.5 149.2,136.1 151.1,130.2 
				146.1,126.5 152.3,126.5 			"/>
			<polygon class="st0" points="189.3,120.6 191.2,126.5 197.4,126.5 192.4,130.2 194.3,136.1 189.3,132.5 184.3,136.1 186.2,130.2 
				181.1,126.5 187.4,126.5 			"/>
			<rect x="206" y="0" class="st2" width="184" height="21.2"/>
			<rect x="206" y="42.1" class="st2" width="184" height="21.2"/>
			<rect x="206" y="83.5" class="st2" width="184" height="21.2"/>
			<rect x="206" y="124.8" class="st2" width="184" height="21.2"/>
			<rect x="0.1" y="166.1" class="st2" width="389.9" height="21.2"/>
			<rect x="0.1" y="208" class="st2" width="389.9" height="21.2"/>
			<rect x="0.1" y="249.9" class="st2" width="389.9" height="21.2"/>
		</g>
	</g>
</g>
</svg>
