<?xml version="1.0" encoding="utf-8"?>
<!-- Generator: Adobe Illustrator 24.0.1, SVG Export Plug-In . SVG Version: 6.00 Build 0)  -->
<svg version="1.1" id="Camada_1" xmlns="http://www.w3.org/2000/svg" xmlns:xlink="http://www.w3.org/1999/xlink" x="0px" y="0px"
	 viewBox="0 0 8192 2931" style="enable-background:new 0 0 8192 2931;" xml:space="preserve">
<style type="text/css">
	.st0{fill:#FFFFFF;}
</style>
<path class="st0" d="M1228.5,237C550,237,0,787,0,1465.5S550,2694,1228.5,2694S2457,2144,2457,1465.5
	C2457,787.1,1907,237.1,1228.5,237L1228.5,237z M1791.9,2008.8c-22,36.2-69.2,47.5-105.3,25.5C1398.2,1858,1035,1818.2,607.4,1915.8
	c-41.2,9.5-82.3-16.3-91.7-57.6c-9.5-41.2,16.3-82.3,57.6-91.7c467.9-106.9,869.4-60.9,1193.2,137
	C1802.6,1925.7,1814,1972.7,1791.9,2008.8L1791.9,2008.8z M1942.2,1674.4c-27.7,45.1-86.8,59.2-131.8,31.5
	c-330.1-202.9-833.6-261.7-1224.1-143.2c-50.6,15.3-104.2-13.2-119.5-63.8c-15.3-50.6,13.3-104,63.9-119.5
	c446.1-135.4,1000.8-69.8,1380,163.2C1955.7,1570.5,1970,1629.4,1942.2,1674.4L1942.2,1674.4L1942.2,1674.4z M1955.1,1326
	c-396-235.1-1049.2-256.8-1427.3-142.1c-60.7,18.4-124.9-15.8-143.3-76.5c-18.4-60.7,15.8-124.9,76.6-143.3
	c434-131.7,1155.3-106.3,1611.2,164.3c54.6,32.4,72.5,102.9,40.2,157.4C2080.3,1340.4,2009.6,1358.5,1955.1,1326L1955.1,1326z
	 M3342.3,1371.1c-212.1-50.5-249.9-86.1-249.9-160.7c0-70.5,66.4-117.9,165.1-117.9c95.6,0,190.5,36,290,110.1
	c3,2.3,6.8,3.1,10.5,2.5c3.7-0.6,7-2.6,9.1-5.7l103.5-146c4.3-6,3.1-14.3-2.6-18.9c-118.4-95-251.6-141.2-407.4-141.2
	c-229,0-389,137.5-389,334.1c0,210.9,138,285.5,376.5,343.2c202.9,46.8,237.2,85.9,237.2,155.9c0,77.6-69.2,125.8-180.7,125.8
	c-123.8,0-224.8-41.7-337.7-139.6c-2.8-2.4-6.6-3.5-10.2-3.4c-3.8,0.3-7.1,2-9.6,4.9L2831,1852.6c-4.9,5.7-4.3,14.3,1.3,19.3
	c131.4,117.4,293.1,179.3,467.6,179.3c246.8,0,406.2-134.9,406.2-343.5c0.4-176.2-105-273.8-363.4-336.6L3342.3,1371.1
	L3342.3,1371.1z M4264.5,1162c-107,0-194.7,42.2-267.1,128.4v-97.2c0-7.7-6.2-13.9-13.9-13.9h-190c-7.7,0-13.9,6.3-13.9,13.9v1079.7
	c0,7.7,6.2,13.9,13.9,13.9h190c7.6,0,13.9-6.3,13.9-13.9v-340.8c72.3,81.2,160.1,120.9,267.1,120.9c198.8,0,399.9-153,399.9-445.5
	c0.3-292.6-201-445.6-399.8-445.6L4264.5,1162L4264.5,1162z M4443.6,1607.5c0,149-91.7,252.9-223.2,252.9
	c-129.8,0-227.8-108.6-227.8-252.9c0-144.2,98-252.9,227.8-252.9C4349.7,1354.6,4443.6,1461,4443.6,1607.5L4443.6,1607.5
	L4443.6,1607.5z M5180.1,1162c-256,0-456.5,197.1-456.5,448.8c0,249,199.2,444,453.3,444c256.8,0,458-196.4,458-447.1
	C5635.1,1357.7,5435.2,1162,5180.1,1162L5180.1,1162L5180.1,1162z M5180.1,1861.8c-136.1,0-238.8-109.4-238.8-254.4
	c0-145.7,99.1-251.3,235.6-251.3c137.1,0,240.3,109.4,240.3,254.5C5417.4,1756.2,5317.6,1861.8,5180.1,1861.8L5180.1,1861.8
	L5180.1,1861.8z M6181.7,1179.3h-209V965.6c0-7.6-6.2-13.9-13.8-13.9H5769c-7.7,0-13.9,6.3-13.9,13.9v213.7h-91.3
	c-7.6,0-13.8,6.3-13.8,13.9v163.2c0,7.6,6.2,13.9,13.8,13.9h91.3v422.3c0,170.7,84.9,257.2,252.5,257.2
	c68.2,0,124.7-14.1,177.9-44.3c4.4-2.4,7-7.1,7-12.1v-155.4c0-4.8-2.5-9.3-6.6-11.8c-4.1-2.6-9.3-2.8-13.5-0.7
	c-36.5,18.4-71.9,26.9-111.5,26.9c-60.9,0-88.1-27.7-88.1-89.7v-392.5h209c7.7,0,13.8-6.3,13.8-13.9v-163.2
	c0.3-7.7-5.9-13.9-13.7-13.9H6181.7z M6909.9,1180.1v-26.2c0-77.2,29.6-111.7,96-111.7c39.6,0,71.4,7.9,107,19.8
	c4.4,1.3,9,0.7,12.5-1.9c3.7-2.6,5.7-6.9,5.7-11.3V888.7c0-6.1-3.9-11.6-9.8-13.3c-37.6-11.2-85.8-22.7-157.8-22.7
	c-175.5,0-268.2,98.7-268.2,285.6v40.2H6604c-7.6,0-13.9,6.3-13.9,13.9v164.1c0,7.6,6.3,13.9,13.9,13.9h91.3v651.5
	c0,7.7,6.2,13.9,13.8,13.9h190c7.7,0,13.9-6.3,13.9-13.9v-651.4h177.3l271.6,651.3c-30.8,68.4-61.2,82.1-102.5,82.1
	c-33.4,0-68.7-10-104.7-29.7c-3.4-1.8-7.4-2.2-11.1-1c-3.6,1.3-6.7,3.9-8.2,7.5l-64.4,141.3c-3.1,6.7-0.4,14.5,6,17.9
	c67.2,36.4,127.8,51.9,202.9,51.9c140.2,0,217.8-65.3,286.1-241.1l329.5-851.4c1.7-4.3,1.2-9.1-1.5-12.9c-2.6-3.8-6.8-6-11.4-6
	h-197.8c-6,0-11.2,3.8-13.2,9.3L7469.2,1768l-221.9-578.9c-2-5.4-7.2-9-13-9L6909.9,1180.1L6909.9,1180.1L6909.9,1180.1z
	 M6487.7,1179.3h-190c-7.7,0-13.9,6.3-13.9,13.9v828.6c0,7.7,6.3,13.9,13.9,13.9h190c7.6,0,13.9-6.3,13.9-13.9v-828.6
	C6501.6,1185.6,6495.4,1179.4,6487.7,1179.3C6487.8,1179.3,6487.7,1179.3,6487.7,1179.3L6487.7,1179.3z M6393.8,802
	c-75.3,0-136.3,60.9-136.3,136.1c0,75.3,61.1,136.3,136.3,136.3s136.2-60.9,136.2-136.3C6530,862.9,6469,802,6393.8,802L6393.8,802
	L6393.8,802z M8057.7,1445.7c-75.2,0-133.6-60.4-133.6-133.7c0-73.3,59.3-134.4,134.4-134.4c75.2,0,133.6,60.4,133.6,133.6
	C8192,1384.6,8132.7,1445.7,8057.7,1445.7L8057.7,1445.7z M8058.4,1191c-68.5,0-120.3,54.4-120.3,121s51.5,120.3,119.5,120.3
	c68.5,0,120.3-54.4,120.3-121C8178,1244.7,8126.5,1191,8058.4,1191L8058.4,1191L8058.4,1191z M8088.1,1325l37.8,52.9H8094l-34-48.5
	h-29.3v48.5h-26.7v-140.3h62.5c32.6,0,54.1,16.7,54.1,44.8c0.2,23-13.2,37.1-32.4,42.6L8088.1,1325L8088.1,1325z M8065.4,1261.7
	h-34.8v44.3h34.8c17.4,0,27.7-8.5,27.7-22.2C8093.2,1269.4,8082.8,1261.7,8065.4,1261.7L8065.4,1261.7L8065.4,1261.7z"/>
</svg>
